HIERARCHY
ROOT CG
{
	OFFSET 0.000000 0.000000 27.772259
	CHANNELS 6 Xposition Yposition Zposition Xrotation Yrotation Zrotation
	JOINT Pelvis
	{
		OFFSET 0.000000 0.000000 0.000000
		CHANNELS 3 Xrotation Yrotation Zrotation
		JOINT Spine
		{
			OFFSET -0.000017 -10.490843 -0.495483
			CHANNELS 3 Xrotation Yrotation Zrotation
			JOINT Spine1
			{
				OFFSET -0.000010 -22.678980 0.018061
				CHANNELS 3 Xrotation Yrotation Zrotation
				JOINT Spine2
				{
					OFFSET -0.000010 -22.678967 0.018061
					CHANNELS 3 Xrotation Yrotation Zrotation
					JOINT Spine3
					{
						OFFSET -0.000010 -22.678982 0.018059
						CHANNELS 3 Xrotation Yrotation Zrotation
						JOINT Neck
						{
							OFFSET -0.000012 -22.678986 -1.289251
							CHANNELS 3 Xrotation Yrotation Zrotation
							JOINT Neck1
							{
								OFFSET -0.000007 -16.255905 0.012947
								CHANNELS 3 Xrotation Yrotation Zrotation
								JOINT Head
								{
									OFFSET -0.000005 -10.784607 -0.287502
									CHANNELS 3 Xrotation Yrotation Zrotation
									JOINT Jaw01
									{
										OFFSET 0.000031 7.782959 5.073944
										CHANNELS 3 Xrotation Yrotation Zrotation
										JOINT Jaw02
										{
											OFFSET 0.000004 -34.927139 -18.883980
											CHANNELS 3 Xrotation Yrotation Zrotation
											End Site
											{
												OFFSET -0.000170 8.372803 -38.812450
											}
										}
									}
									JOINT Nose
									{
										OFFSET -0.000002 -25.700912 7.222265
										CHANNELS 3 Xrotation Yrotation Zrotation
										End Site
										{
											OFFSET -0.000090 0.641281 -21.715439
										}
									}
									JOINT L_EyeSocket
									{
										OFFSET 7.352326 -19.832718 14.164183
										CHANNELS 3 Xrotation Yrotation Zrotation
										JOINT L_Eye
										{
											OFFSET -0.000868 -0.001053 0.016003
											CHANNELS 3 Xrotation Yrotation Zrotation
											End Site
											{
												OFFSET -0.001505 -0.001846 0.027969
											}
										}
										JOINT L_Eyelid_Top
										{
											OFFSET -0.001004 -0.002625 0.032516
											CHANNELS 3 Xrotation Yrotation Zrotation
											End Site
											{
												OFFSET -0.013218 0.005753 0.024086
											}
										}
										JOINT L_Eyelid_Bottom
										{
											OFFSET -0.001194 -0.002777 0.035381
											CHANNELS 3 Xrotation Yrotation Zrotation
											End Site
											{
												OFFSET -0.010032 0.008636 -0.024754
											}
										}
									}
									JOINT R_EyeSocket
									{
										OFFSET -7.352252 -19.832748 14.164206
										CHANNELS 3 Xrotation Yrotation Zrotation
										JOINT R_Eye
										{
											OFFSET 0.000875 -0.001068 0.015991
											CHANNELS 3 Xrotation Yrotation Zrotation
											End Site
											{
												OFFSET 0.001505 -0.001846 0.027962
											}
										}
										JOINT R_Eyelid_Top
										{
											OFFSET 0.001021 -0.002625 0.032516
											CHANNELS 3 Xrotation Yrotation Zrotation
											End Site
											{
												OFFSET 0.013214 0.005753 0.024078
											}
										}
										JOINT R_Eyelid_Bottom
										{
											OFFSET 0.001170 -0.002762 0.035366
											CHANNELS 3 Xrotation Yrotation Zrotation
											End Site
											{
												OFFSET 0.010029 0.008636 -0.024746
											}
										}
									}
								}
								JOINT Neck_Fat
								{
									OFFSET 0.000044 -9.595100 -17.491512
									CHANNELS 3 Xrotation Yrotation Zrotation
									End Site
									{
										OFFSET -0.000036 15.369423 -0.000007
									}
								}
							}
						}
						JOINT L_Clavicle
						{
							OFFSET 4.567107 -11.666092 -3.750029
							CHANNELS 3 Xrotation Yrotation Zrotation
							JOINT L_UpperArm
							{
								OFFSET 20.725666 -0.000053 -0.000032
								CHANNELS 3 Xrotation Yrotation Zrotation
								JOINT L_Forearm
								{
									OFFSET 5.265112 -0.585754 -20.155697
									CHANNELS 3 Xrotation Yrotation Zrotation
									JOINT L_Hand
									{
										OFFSET 2.653017 -10.877708 -16.383667
										CHANNELS 3 Xrotation Yrotation Zrotation
										JOINT L_Finger0
										{
											OFFSET -4.206146 -4.328911 -5.034346
											CHANNELS 3 Xrotation Yrotation Zrotation
											JOINT L_Finger01
											{
												OFFSET 0.084272 -1.788536 -4.181065
												CHANNELS 3 Xrotation Yrotation Zrotation
												End Site
												{
													OFFSET 3.261885 3.094673 -0.685818
												}
											}
										}
										JOINT L_Finger1
										{
											OFFSET -1.039112 -6.775742 -3.499998
											CHANNELS 3 Xrotation Yrotation Zrotation
											JOINT L_Finger11
											{
												OFFSET 1.320335 -3.040672 -6.425793
												CHANNELS 3 Xrotation Yrotation Zrotation
												End Site
												{
													OFFSET -1.244579 6.832077 -2.013330
												}
											}
										}
										JOINT L_Finger2
										{
											OFFSET 2.531296 -5.656487 -3.286415
											CHANNELS 3 Xrotation Yrotation Zrotation
											JOINT L_Finger21
											{
												OFFSET 1.991665 -2.402016 -5.957748
												CHANNELS 3 Xrotation Yrotation Zrotation
												End Site
												{
													OFFSET -2.793068 5.800873 -1.944178
												}
											}
										}
										JOINT L_Finger3
										{
											OFFSET 5.474075 -3.302338 -2.655975
											CHANNELS 3 Xrotation Yrotation Zrotation
											JOINT L_Finger31
											{
												OFFSET 2.026943 -1.267532 -5.961166
												CHANNELS 3 Xrotation Yrotation Zrotation
												End Site
												{
													OFFSET -4.375172 4.343658 -1.800320
												}
											}
										}
										JOINT L_Finger4
										{
											OFFSET 4.825745 1.085899 -2.321970
											CHANNELS 3 Xrotation Yrotation Zrotation
											JOINT L_Finger41
											{
												OFFSET 3.358261 -1.829651 -3.744434
												CHANNELS 3 Xrotation Yrotation Zrotation
												End Site
												{
													OFFSET -3.843296 2.955200 -2.267633
												}
											}
										}
									}
								}
							}
						}
						JOINT R_Clavicle
						{
							OFFSET -4.567111 -11.666092 -3.750036
							CHANNELS 3 Xrotation Yrotation Zrotation
							JOINT R_UpperArm
							{
								OFFSET -20.725670 -0.000031 0.000038
								CHANNELS 3 Xrotation Yrotation Zrotation
								JOINT R_Forearm
								{
									OFFSET -5.265285 -0.585762 -20.155655
									CHANNELS 3 Xrotation Yrotation Zrotation
									JOINT R_Hand
									{
										OFFSET -2.653147 -10.877739 -16.383663
										CHANNELS 3 Xrotation Yrotation Zrotation
										JOINT R_Finger0
										{
											OFFSET 4.206116 -4.328888 -5.034388
											CHANNELS 3 Xrotation Yrotation Zrotation
											JOINT R_Finger01
											{
												OFFSET -0.084324 -1.788544 -4.181051
												CHANNELS 3 Xrotation Yrotation Zrotation
												End Site
												{
													OFFSET -3.261890 3.094666 -0.685791
												}
											}
										}
										JOINT R_Finger1
										{
											OFFSET 1.039101 -6.775711 -3.499994
											CHANNELS 3 Xrotation Yrotation Zrotation
											JOINT R_Finger11
											{
												OFFSET -1.320374 -3.040672 -6.425779
												CHANNELS 3 Xrotation Yrotation Zrotation
												End Site
												{
													OFFSET 1.244556 6.832077 -2.013342
												}
											}
										}
										JOINT R_Finger2
										{
											OFFSET -2.531307 -5.656464 -3.286409
											CHANNELS 3 Xrotation Yrotation Zrotation
											JOINT R_Finger21
											{
												OFFSET -1.991707 -2.402016 -5.957708
												CHANNELS 3 Xrotation Yrotation Zrotation
												End Site
												{
													OFFSET 2.793037 5.800858 -1.944197
												}
											}
										}
										JOINT R_Finger3
										{
											OFFSET -5.474091 -3.302330 -2.655947
											CHANNELS 3 Xrotation Yrotation Zrotation
											JOINT R_Finger31
											{
												OFFSET -2.026993 -1.267532 -5.961157
												CHANNELS 3 Xrotation Yrotation Zrotation
												End Site
												{
													OFFSET 4.375156 4.343674 -1.800358
												}
											}
										}
										JOINT R_Finger4
										{
											OFFSET -4.825756 1.085922 -2.321926
											CHANNELS 3 Xrotation Yrotation Zrotation
											JOINT R_Finger41
											{
												OFFSET -3.358307 -1.829651 -3.744390
												CHANNELS 3 Xrotation Yrotation Zrotation
												End Site
												{
													OFFSET 3.843273 2.955208 -2.267666
												}
											}
										}
									}
								}
							}
						}
					}
				}
			}
		}
		JOINT Tail01
		{
			OFFSET -0.000010 10.922326 -0.017508
			CHANNELS 3 Xrotation Yrotation Zrotation
			JOINT Tail02
			{
				OFFSET -0.000022 21.986111 0.000013
				CHANNELS 3 Xrotation Yrotation Zrotation
				JOINT Tail03
				{
					OFFSET -0.000022 21.986118 0.000002
					CHANNELS 3 Xrotation Yrotation Zrotation
					JOINT Tail04
					{
						OFFSET -0.000022 21.986122 0.000004
						CHANNELS 3 Xrotation Yrotation Zrotation
						JOINT Tail05
						{
							OFFSET -0.000022 21.986099 0.000010
							CHANNELS 3 Xrotation Yrotation Zrotation
							JOINT Tail06
							{
								OFFSET -0.000022 21.986099 0.000006
								CHANNELS 3 Xrotation Yrotation Zrotation
								JOINT Tail07
								{
									OFFSET -0.000022 21.986099 0.000000
									CHANNELS 3 Xrotation Yrotation Zrotation
									JOINT Tail08
									{
										OFFSET -0.000022 21.984848 0.000050
										CHANNELS 3 Xrotation Yrotation Zrotation
										JOINT Tail09
										{
											OFFSET -0.000025 21.926025 -1.606211
											CHANNELS 3 Xrotation Yrotation Zrotation
											JOINT Tail10
											{
												OFFSET -0.000027 21.750092 -3.203882
												CHANNELS 3 Xrotation Yrotation Zrotation
												End Site
												{
													OFFSET -0.000036 4.767395 21.461668
												}
											}
										}
									}
								}
							}
						}
					}
				}
			}
		}
		JOINT L_Thigh
		{
			OFFSET 24.788780 0.000021 -0.000034
			CHANNELS 3 Xrotation Yrotation Zrotation
			JOINT L_Calf
			{
				OFFSET 4.720837 4.161326 -21.049969
				CHANNELS 3 Xrotation Yrotation Zrotation
				JOINT L_Foot
				{
					OFFSET 2.154160 21.114433 -11.949743
					CHANNELS 3 Xrotation Yrotation Zrotation
					JOINT L_Toe0
					{
						OFFSET 4.557564 9.251841 -8.735286
						CHANNELS 3 Xrotation Yrotation Zrotation
						End Site
						{
							OFFSET 4.555542 -12.646044 1.018752
						}
					}
					JOINT L_Toe1
					{
						OFFSET 2.346291 5.845602 -11.687160
						CHANNELS 3 Xrotation Yrotation Zrotation
						End Site
						{
							OFFSET 5.347954 -12.298279 1.365644
						}
					}
					JOINT L_Toe2
					{
						OFFSET -0.356020 3.902458 -12.541145
						CHANNELS 3 Xrotation Yrotation Zrotation
						End Site
						{
							OFFSET 3.916235 -12.806129 1.542549
						}
					}
					JOINT L_Toe3
					{
						OFFSET -4.603447 3.183935 -12.435249
						CHANNELS 3 Xrotation Yrotation Zrotation
						End Site
						{
							OFFSET 3.810858 -12.587427 2.957583
						}
					}
					JOINT L_Toe4
					{
						OFFSET -7.144358 6.231495 -10.072764
						CHANNELS 3 Xrotation Yrotation Zrotation
						End Site
						{
							OFFSET 3.810858 -12.587425 2.957585
						}
					}
				}
			}
		}
		JOINT R_Thigh
		{
			OFFSET -24.788780 -0.000024 0.000034
			CHANNELS 3 Xrotation Yrotation Zrotation
			JOINT R_Calf
			{
				OFFSET -4.720922 4.161324 -21.049952
				CHANNELS 3 Xrotation Yrotation Zrotation
				JOINT R_Foot
				{
					OFFSET -2.154238 21.114414 -11.949730
					CHANNELS 3 Xrotation Yrotation Zrotation
					JOINT R_Toe0
					{
						OFFSET -4.557598 9.251823 -8.735270
						CHANNELS 3 Xrotation Yrotation Zrotation
						End Site
						{
							OFFSET -4.555508 -12.646051 1.018756
						}
					}
					JOINT R_Toe1
					{
						OFFSET -2.346325 5.845589 -11.687157
						CHANNELS 3 Xrotation Yrotation Zrotation
						End Site
						{
							OFFSET -5.347919 -12.298286 1.365654
						}
					}
					JOINT R_Toe2
					{
						OFFSET 0.355980 3.902462 -12.541145
						CHANNELS 3 Xrotation Yrotation Zrotation
						End Site
						{
							OFFSET -3.916199 -12.806131 1.542559
						}
					}
					JOINT R_Toe3
					{
						OFFSET 4.603411 3.183941 -12.435266
						CHANNELS 3 Xrotation Yrotation Zrotation
						End Site
						{
							OFFSET -3.810825 -12.587429 2.957591
						}
					}
					JOINT R_Toe4
					{
						OFFSET 7.144323 6.231503 -10.072779
						CHANNELS 3 Xrotation Yrotation Zrotation
						End Site
						{
							OFFSET -3.810825 -12.587433 2.957584
						}
					}
				}
			}
		}
	}
}
MOTION
Frames: 4
Frame Time: 0.033333
-11.992709 0.000001 36.000000 -0.000000 0.000000 -0.000051 -0.000001 -0.000000 -13.456116 -0.215948 2.958335 3.689907 -0.480049 3.006187 4.391187 -0.799877 2.992769 4.933614 -0.012132 3.074862 7.253879 -0.040918 0.161841 3.129926 -3.257144 -3.157409 2.739342 1.008878 -6.667501 0.402667 -16.238075 -0.000022 0.000024 0.000020 -0.000000 -0.000000 0.000021 -0.000000 0.000001 0.000000 0.000000 -0.000005 0.000141 -0.000086 -0.000006 0.000002 -0.000002 0.000002 0.000002 -0.000007 0.000009 0.000000 0.000000 -0.000009 0.000139 0.000087 -0.000018 0.000009 -0.000003 0.000002 -0.000006 0.000013 -0.000001 -0.000000 0.000006 0.000000 0.000118 18.447081 11.357176 89.259835 -18.495906 45.016015 -6.349065 1.086925 -1.632818 0.895849 0.694667 -14.742239 6.824817 7.695864 -4.440347 -4.444512 8.285165 -5.013899 -10.853632 -2.177421 -1.347524 -10.852529 -2.185241 -1.344258 -9.882306 -4.989600 -1.640995 -9.879544 -4.995637 -1.646111 -7.741117 -7.969435 -1.421241 -7.740931 -7.966629 -1.424968 -6.435326 -9.017299 -1.707986 -6.438539 -9.013140 -1.707619 -0.002188 -13.387186 -10.696997 88.218607 12.718084 8.900191 -15.854923 -3.046116 3.842406 22.704841 2.712602 35.661152 17.515515 3.434495 0.023304 8.946388 5.631610 -0.729723 8.825509 -1.941716 -0.778230 8.824666 -1.946061 -0.776826 7.977473 -4.240186 -0.698362 7.978825 -4.238640 -0.694376 6.211460 -6.599105 -0.370426 6.213810 -6.597702 -0.363335 5.105929 -7.458194 -0.638725 5.100360 -7.461086 -0.645554 -0.028394 0.005813 -2.301694 -0.029089 0.006178 1.090044 -0.029936 -0.007006 -5.656866 -0.027667 0.001244 -4.545214 -0.026855 -0.005260 -0.169951 -0.027224 -0.007725 3.468182 -0.017162 -0.012881 6.091048 0.125343 -0.503228 7.924295 0.423053 -0.605619 12.313235 0.989988 -0.128800 15.547724 39.757647 0.429953 -4.597955 -2.986079 -0.065804 -0.688006 40.166966 -2.877258 9.155564 0.002511 0.004593 0.001253 0.001439 0.008381 0.000793 0.004207 -0.002121 0.006018 0.002523 0.003432 -0.008415 0.002845 0.003751 -0.001728 20.115233 -1.545632 -8.339507 13.298815 -0.723619 -2.989346 40.016705 -20.160932 -8.268443 14.851886 -6.554677 -4.804983 14.878092 -7.494306 -3.294929 16.253902 -5.326920 -0.855842 16.538434 -4.477036 1.834764 16.254756 -3.122625 5.011274 
-13.865157 0.000002 36.000000 -0.000000 0.000000 -0.000051 -0.000001 -0.000000 -12.653000 -0.297999 3.368056 4.576566 -0.545966 3.072997 4.601285 -0.862013 3.057932 5.153810 0.050268 3.146241 6.796234 -0.038294 0.144337 2.469239 -3.300545 -3.274839 1.870608 1.230285 -7.269835 0.383589 -16.244015 -0.000023 0.000023 0.000020 -0.000001 0.000000 0.000021 0.000000 0.000001 0.000000 0.000000 -0.000000 0.000141 -0.000087 -0.000006 0.000002 -0.000002 0.000002 0.000003 -0.000007 0.000005 0.000001 0.000000 -0.000003 0.000140 0.000087 -0.000018 0.000007 -0.000009 -0.000002 -0.000006 0.000014 -0.000004 -0.000000 0.000006 -0.000000 0.000829 18.352752 11.160433 89.866179 -18.199034 43.208603 -8.478344 1.492364 -2.153960 1.535898 1.114381 -14.830701 7.298323 7.169295 -4.280951 -3.979715 7.759697 -4.861129 -10.138238 -2.041226 -1.246035 -10.136938 -2.049715 -1.243304 -9.227146 -4.665989 -1.508373 -9.223668 -4.676525 -1.511225 -7.224849 -7.445316 -1.291784 -7.222128 -7.449322 -1.297355 -6.003967 -8.425463 -1.562785 -6.002944 -8.426864 -1.562940 -0.004434 -13.542222 -10.992982 87.628725 12.931444 7.009007 -14.279333 -2.695530 3.497962 21.914662 0.510008 35.083595 16.941278 2.880046 0.298147 7.610667 4.370157 -0.046513 6.962248 -1.520484 -0.642945 6.961706 -1.525272 -0.637771 6.294716 -3.335645 -0.596827 6.294738 -3.335662 -0.596824 4.899609 -5.200980 -0.346205 4.899609 -5.200994 -0.346213 4.024764 -5.880316 -0.564196 4.024717 -5.880300 -0.564211 -0.028337 0.007457 -2.279709 -0.028993 0.001485 0.916410 -0.029803 -0.005018 -6.036465 -0.027577 0.002568 -5.229704 -0.026916 -0.003232 -1.199595 -0.027413 -0.006078 2.120990 -0.016950 -0.010865 4.519304 0.114844 -0.564800 6.299695 0.375133 -0.756371 10.951945 0.904580 -0.358831 14.774034 39.496436 -0.167472 -3.925688 -2.576899 -0.058905 -0.593548 41.181010 -1.918646 8.403773 0.000002 -0.000008 -0.000001 -0.000001 -0.000003 0.000002 0.000406 -0.001355 0.000165 -0.001301 0.004298 -0.001007 -0.001542 0.005111 -0.001199 20.560748 -2.091803 -7.921750 12.784678 -0.682807 -2.877185 38.917052 -19.581854 -8.724876 14.991089 -6.622980 -4.842260 15.018469 -7.569508 -3.316631 16.406900 -5.382886 -0.861006 16.698057 -4.510930 1.863872 16.413414 -3.136563 5.061126 
-15.565919 0.000002 36.000000 -0.000000 0.000000 -0.000051 -0.000001 -0.000000 -11.145212 -0.363628 3.777247 5.020788 -0.608677 3.053282 4.860975 -0.895446 3.038725 5.205792 0.221503 3.128643 5.987604 -0.035742 0.112982 1.861381 -3.348863 -3.458237 0.926768 1.507297 -7.650583 0.424936 -16.256817 -0.000022 0.000023 0.000020 -0.000001 0.000001 0.000021 0.000000 0.000001 0.000000 0.000000 -0.000000 0.000141 -0.000087 -0.000003 0.000003 -0.000003 0.000000 0.000003 -0.000007 0.000006 0.000001 0.000000 -0.000003 0.000140 0.000087 -0.000021 0.000007 -0.000007 -0.000002 -0.000007 0.000012 0.000001 -0.000000 0.000008 0.000000 0.001667 18.231547 11.029530 90.688841 -17.777526 40.610143 -10.998077 1.997607 -2.751822 2.268795 1.770352 -14.616499 7.877220 6.523771 -4.079784 -3.399714 7.109069 -4.665153 -9.249204 -1.870367 -1.121399 -9.247607 -1.879467 -1.120164 -8.411681 -4.269574 -1.349606 -8.409613 -4.277631 -1.348716 -6.582656 -6.798077 -1.141867 -6.579489 -6.804549 -1.145475 -5.467360 -7.694802 -1.387896 -5.464279 -7.696413 -1.389613 0.003741 -13.959997 -11.482775 87.125224 13.682430 3.811073 -12.874009 -2.391220 3.183095 20.616979 -3.787620 31.515825 15.929681 1.893695 0.780587 5.782459 2.610217 0.859028 4.382421 -0.943072 -0.426662 4.381150 -0.950599 -0.422866 3.962787 -2.090650 -0.414767 3.962524 -2.090971 -0.418146 3.083717 -3.267995 -0.263312 3.083169 -3.268604 -0.269598 2.535029 -3.693664 -0.393733 2.535747 -3.694717 -0.402853 -0.028293 0.008497 -2.300245 -0.028986 0.001688 0.661678 -0.029598 -0.002668 -6.362492 -0.027478 0.003714 -5.831463 -0.026892 -0.000579 -2.185871 -0.027549 -0.004516 0.754561 -0.016693 -0.008802 2.854800 0.110384 -0.624339 4.528627 0.338083 -0.917654 9.323562 0.823076 -0.608753 13.687889 39.040050 -1.036587 -3.214069 -2.041844 -0.048876 -0.470112 42.716512 -0.540897 7.559537 0.000000 -0.000004 0.000002 0.000002 -0.000007 0.000008 -0.000012 -0.000003 0.000001 -0.001020 0.003374 -0.000788 -0.001919 0.006356 -0.001492 21.290881 -2.783874 -7.676775 11.938338 -0.617827 -2.691800 38.055519 -18.737447 -9.306546 15.398240 -6.822138 -4.952831 15.429577 -7.788798 -3.380207 16.859963 -5.533550 -0.863415 17.162076 -4.625605 1.934224 16.868383 -3.205934 5.215321 
-17.062626 0.000002 36.000000 -0.000000 0.000000 -0.000051 -0.000000 -0.000000 -9.166425 -0.404789 4.180274 5.125015 -0.667014 2.958261 5.122671 -0.903005 2.945854 5.122052 0.461273 3.032209 4.928893 -0.033723 0.073765 1.282196 -3.401917 -3.649539 -0.060420 1.826218 -7.847134 0.501395 -16.275917 -0.000023 0.000024 0.000018 -0.000001 0.000002 0.000021 0.000000 0.000001 0.000001 0.000000 0.000002 0.000141 -0.000086 -0.000005 0.000000 -0.000005 0.000000 0.000001 -0.000005 0.000007 0.000000 0.000000 -0.000000 0.000139 0.000087 -0.000014 0.000008 -0.000006 0.000003 -0.000008 0.000013 0.000002 0.000000 0.000007 0.000000 0.002201 18.088979 10.937374 91.614488 -17.364737 37.568564 -13.685143 2.565842 -3.365576 3.302642 2.574932 -14.178847 8.536525 5.792623 -3.848231 -2.732590 6.369115 -4.432346 -8.232468 -1.672884 -0.982099 -8.230604 -1.682354 -0.982545 -7.480223 -3.816236 -1.172266 -7.480078 -3.818457 -1.169866 -5.848618 -6.062000 -0.979856 -5.847317 -6.064798 -0.980868 -4.852474 -6.862148 -1.196709 -4.851775 -6.858721 -1.200137 0.001799 -14.482938 -12.050380 86.758518 14.683606 0.067743 -11.523456 -2.106390 2.873905 18.837925 -8.064321 26.625015 14.753415 0.726031 1.328557 3.890138 0.723153 1.749782 1.661895 -0.346909 -0.169309 1.659968 -0.356177 -0.168683 1.502193 -0.788433 -0.175342 1.502194 -0.788432 -0.175337 1.168947 -1.236105 -0.122756 1.168950 -1.236116 -0.122751 0.962873 -1.397115 -0.171718 0.962852 -1.397094 -0.171722 -0.028267 0.008751 -2.380827 -0.028972 0.002012 0.254541 -0.029316 0.000147 -6.729459 -0.027312 0.005296 -6.373112 -0.026768 0.002472 -3.035710 -0.027630 -0.003225 -0.450966 -0.016381 -0.006844 1.251924 0.109680 -0.681247 2.576656 0.310835 -1.110059 7.226142 0.746434 -0.931040 12.042196 38.377617 -2.033363 -2.413356 -1.392448 -0.035151 -0.320422 44.730123 1.121419 6.671227 0.000001 -0.000001 0.000001 -0.000002 0.000000 0.000003 0.000102 -0.000379 0.000045 -0.000585 0.001925 -0.000450 -0.002040 0.006772 -0.001588 22.262139 -3.568301 -7.447877 10.812096 -0.535643 -2.443732 37.435543 -17.658510 -9.997131 16.039412 -7.137892 -5.126195 16.076916 -8.138676 -3.477943 17.575012 -5.770727 -0.865399 17.894667 -4.804711 2.047648 17.586836 -3.309963 5.460809 
